<mxfile host="65bd71144e">
    <diagram id="3uZD-otO5uDtkVaysJQB" name="페이지-1">
        <mxGraphModel dx="606" dy="328" grid="1" gridSize="10" guides="1" tooltips="1" connect="1" arrows="1" fold="1" page="1" pageScale="1" pageWidth="2339" pageHeight="3300" math="0" shadow="0">
            <root>
                <mxCell id="0"/>
                <mxCell id="1" parent="0"/>
                <mxCell id="7FqkuPDttkH3QRXe7aWk-10" value="" style="rounded=0;whiteSpace=wrap;html=1;" parent="1" vertex="1">
                    <mxGeometry x="290" y="90" width="280" height="210" as="geometry"/>
                </mxCell>
                <mxCell id="7FqkuPDttkH3QRXe7aWk-4" style="edgeStyle=orthogonalEdgeStyle;orthogonalLoop=1;jettySize=auto;html=1;exitX=0;exitY=0.25;exitDx=0;exitDy=0;exitPerimeter=0;strokeColor=default;rounded=0;endArrow=none;endFill=0;" parent="1" source="7FqkuPDttkH3QRXe7aWk-1" edge="1">
                    <mxGeometry relative="1" as="geometry">
                        <mxPoint x="260" y="125" as="targetPoint"/>
                    </mxGeometry>
                </mxCell>
                <mxCell id="7FqkuPDttkH3QRXe7aWk-8" style="edgeStyle=orthogonalEdgeStyle;rounded=0;orthogonalLoop=1;jettySize=auto;html=1;exitX=0;exitY=0.75;exitDx=0;exitDy=0;exitPerimeter=0;strokeColor=default;endArrow=none;endFill=0;" parent="1" source="7FqkuPDttkH3QRXe7aWk-1" edge="1">
                    <mxGeometry relative="1" as="geometry">
                        <mxPoint x="260" y="155" as="targetPoint"/>
                    </mxGeometry>
                </mxCell>
                <mxCell id="7FqkuPDttkH3QRXe7aWk-12" style="edgeStyle=orthogonalEdgeStyle;rounded=0;orthogonalLoop=1;jettySize=auto;html=1;exitX=1;exitY=0.5;exitDx=0;exitDy=0;exitPerimeter=0;strokeColor=default;endArrow=none;endFill=0;" parent="1" source="7FqkuPDttkH3QRXe7aWk-1" edge="1">
                    <mxGeometry relative="1" as="geometry">
                        <mxPoint x="600" y="140.04761904761904" as="targetPoint"/>
                    </mxGeometry>
                </mxCell>
                <mxCell id="7FqkuPDttkH3QRXe7aWk-1" value="" style="verticalLabelPosition=bottom;shadow=0;dashed=0;align=center;html=1;verticalAlign=top;shape=mxgraph.electrical.logic_gates.logic_gate;operation=xor;" parent="1" vertex="1">
                    <mxGeometry x="410" y="110" width="100" height="60" as="geometry"/>
                </mxCell>
                <mxCell id="7FqkuPDttkH3QRXe7aWk-7" style="edgeStyle=orthogonalEdgeStyle;rounded=0;orthogonalLoop=1;jettySize=auto;html=1;exitX=0;exitY=0.25;exitDx=0;exitDy=0;exitPerimeter=0;strokeColor=default;endArrow=oval;endFill=1;" parent="1" edge="1">
                    <mxGeometry relative="1" as="geometry">
                        <mxPoint x="380" y="125" as="targetPoint"/>
                        <mxPoint x="430" y="235" as="sourcePoint"/>
                    </mxGeometry>
                </mxCell>
                <mxCell id="7FqkuPDttkH3QRXe7aWk-9" style="edgeStyle=orthogonalEdgeStyle;rounded=0;orthogonalLoop=1;jettySize=auto;html=1;exitX=0;exitY=0.75;exitDx=0;exitDy=0;exitPerimeter=0;strokeColor=default;endArrow=oval;endFill=1;" parent="1" edge="1">
                    <mxGeometry relative="1" as="geometry">
                        <mxPoint x="360" y="156" as="targetPoint"/>
                        <mxPoint x="430" y="266" as="sourcePoint"/>
                    </mxGeometry>
                </mxCell>
                <mxCell id="7FqkuPDttkH3QRXe7aWk-13" style="edgeStyle=orthogonalEdgeStyle;rounded=0;orthogonalLoop=1;jettySize=auto;html=1;exitX=1;exitY=0.5;exitDx=0;exitDy=0;exitPerimeter=0;strokeColor=default;endArrow=none;endFill=0;" parent="1" source="7FqkuPDttkH3QRXe7aWk-2" edge="1">
                    <mxGeometry relative="1" as="geometry">
                        <mxPoint x="600" y="250.04761904761904" as="targetPoint"/>
                    </mxGeometry>
                </mxCell>
                <mxCell id="7FqkuPDttkH3QRXe7aWk-2" value="" style="shape=or;whiteSpace=wrap;html=1;" parent="1" vertex="1">
                    <mxGeometry x="430" y="210" width="60" height="80" as="geometry"/>
                </mxCell>
                <mxCell id="2" value="A" style="text;html=1;strokeColor=none;fillColor=none;align=center;verticalAlign=middle;whiteSpace=wrap;rounded=0;" vertex="1" parent="1">
                    <mxGeometry x="200" y="110" width="60" height="30" as="geometry"/>
                </mxCell>
                <mxCell id="3" value="B" style="text;html=1;strokeColor=none;fillColor=none;align=center;verticalAlign=middle;whiteSpace=wrap;rounded=0;" vertex="1" parent="1">
                    <mxGeometry x="200" y="140" width="60" height="30" as="geometry"/>
                </mxCell>
                <mxCell id="4" value="sum" style="text;html=1;strokeColor=none;fillColor=none;align=center;verticalAlign=middle;whiteSpace=wrap;rounded=0;" vertex="1" parent="1">
                    <mxGeometry x="610" y="125" width="60" height="30" as="geometry"/>
                </mxCell>
                <mxCell id="5" value="carry" style="text;html=1;strokeColor=none;fillColor=none;align=center;verticalAlign=middle;whiteSpace=wrap;rounded=0;" vertex="1" parent="1">
                    <mxGeometry x="610" y="235" width="60" height="30" as="geometry"/>
                </mxCell>
                <mxCell id="7" value="Module" style="text;html=1;strokeColor=none;fillColor=none;align=center;verticalAlign=middle;whiteSpace=wrap;rounded=0;" vertex="1" parent="1">
                    <mxGeometry x="400" y="50" width="60" height="30" as="geometry"/>
                </mxCell>
            </root>
        </mxGraphModel>
    </diagram>
</mxfile>